<svg width="100" height="100" viewBox="0 0 100 100" fill="none" xmlns="http://www.w3.org/2000/svg">
<path d="M66.6667 87.5V79.1667C66.6667 74.7464 64.9108 70.5072 61.7852 67.3816C58.6596 64.256 54.4204 62.5 50.0001 62.5H20.8334C16.4131 62.5 12.1739 64.256 9.0483 67.3816C5.9227 70.5072 4.16675 74.7464 4.16675 79.1667V87.5" stroke="#F26122" stroke-width="8.33333" stroke-linecap="round" stroke-linejoin="round"/>
<path d="M35.4167 45.8333C44.6214 45.8333 52.0833 38.3714 52.0833 29.1667C52.0833 19.9619 44.6214 12.5 35.4167 12.5C26.2119 12.5 18.75 19.9619 18.75 29.1667C18.75 38.3714 26.2119 45.8333 35.4167 45.8333Z" stroke="#F26122" stroke-width="8.33333" stroke-linecap="round" stroke-linejoin="round"/>
<path d="M83.3333 33.3333V58.3333" stroke="#F26122" stroke-width="8.33333" stroke-linecap="round" stroke-linejoin="round"/>
<path d="M95.8333 45.8333H70.8333" stroke="#F26122" stroke-width="8.33333" stroke-linecap="round" stroke-linejoin="round"/>
</svg>
